<svg xmlns="http://www.w3.org/2000/svg" xmlns:xlink="http://www.w3.org/1999/xlink" id="Layer_1" x="0" y="0" version="1.1" viewBox="0 0 370.271 98.388" xml:space="preserve" style="enable-background:new 0 0 370.271 98.388"><style type="text/css">.st0{fill-rule:evenodd;clip-rule:evenodd;fill:#ff875b}.st1{fill:#fff}</style><g><path d="M0,50.09C0,22.426,22.426,0,50.09,0s50.089,22.426,50.089,50.09v45.055c0,1.654-1.341,2.996-2.996,2.996 h-28.46c-1.655,0-2.996-1.341-2.996-2.996V50.09c0-8.623-7.015-15.638-15.638-15.638S34.452,41.467,34.452,50.09v45.055 c0,1.654-1.341,2.996-2.996,2.996H2.996C1.341,98.141,0,96.799,0,95.145V50.09z" class="st0"/><g><path d="M151.244,38.556c-4.15,0-7.404,1.271-9.693,3.784V25.234c0-0.936-0.693-1.642-1.613-1.642h-7.377 c-0.919,0-1.612,0.706-1.612,1.642v55.887c0,0.937,0.693,1.643,1.612,1.643h7.377c0.92,0,1.613-0.706,1.613-1.643V55.906 c0-4.655,2.832-7.783,7.047-7.783c4.233,0,6.968,3.087,6.968,7.865v25.133c0,0.937,0.693,1.643,1.612,1.643h7.377 c0.919,0,1.612-0.706,1.612-1.643V54.004C166.167,44.62,160.31,38.556,151.244,38.556z" class="st1"/><path d="M191.338,38.556c-8.844,0-15.412,4.624-18.021,12.691c-0.835,2.667-1.313,6.173-1.313,9.619 c0,3.192,0.508,6.696,1.392,9.613l0.001,0.004c2.509,8.104,9.187,12.941,17.861,12.941c8.536,0,15.123-4.87,17.617-13.017 c0.899-2.782,1.396-6.2,1.396-9.625c0-3.54-0.541-7.055-1.476-9.626C206.215,43.266,199.69,38.556,191.338,38.556z M183.459,54.197c1.216-3.917,3.929-6.074,7.639-6.074c3.837,0,6.577,2.153,7.721,6.082c0.504,1.558,0.77,3.89,0.77,6.745 c0,2.665-0.274,5.063-0.773,6.756c-1.216,3.91-3.97,6.152-7.557,6.152c-3.817,0-6.659-2.239-7.794-6.138 c-0.479-1.734-0.777-4.329-0.777-6.771C182.687,58.432,182.97,55.964,183.459,54.197z" class="st1"/><path d="M236.163,38.556c-3.561,0-6.661,1.295-9.052,3.786v-1.482c0-0.936-0.693-1.642-1.612-1.642h-7.377 c-0.919,0-1.612,0.706-1.612,1.642v55.887c0,0.937,0.693,1.643,1.612,1.643h7.377c0.919,0,1.612-0.706,1.612-1.643V79.727 c2.346,2.454,5.359,3.697,8.972,3.697c7.901,0,13.617-4.271,16.094-12.024c0.938-2.9,1.396-6.266,1.396-10.286 c0-4.178-0.484-7.627-1.476-10.534C249.591,42.826,243.932,38.556,236.163,38.556z M242.81,60.949 c0,3.998-0.796,7.365-2.307,9.742c-1.311,2.101-3.283,3.166-5.863,3.166c-2.4,0-4.183-1.082-5.453-3.317 c-1.289-2.188-1.915-5.325-1.915-9.591c0-4.062,0.607-7.266,1.769-9.285c1.278-2.404,3.189-3.624,5.681-3.624 c2.8,0,4.901,1.249,6.247,3.716C242.191,53.962,242.81,57.054,242.81,60.949z" class="st1"/><path d="M279.224,38.556c-3.561,0-6.661,1.294-9.052,3.785v-1.481c0-0.936-0.693-1.642-1.613-1.642h-7.377 c-0.919,0-1.612,0.706-1.612,1.642v55.887c0,0.937,0.693,1.643,1.612,1.643h7.377c0.92,0,1.613-0.706,1.613-1.643V79.728 c2.346,2.453,5.359,3.696,8.972,3.696c7.901,0,13.617-4.271,16.094-12.024c0.938-2.903,1.396-6.269,1.396-10.286 c0-4.175-0.483-7.624-1.476-10.534C292.652,42.826,286.992,38.556,279.224,38.556z M285.87,60.949 c0,3.998-0.796,7.365-2.307,9.742c-1.311,2.101-3.283,3.166-5.863,3.166c-2.4,0-4.183-1.082-5.453-3.317 c-1.289-2.188-1.915-5.325-1.915-9.591c0-4.061,0.607-7.265,1.768-9.285c1.278-2.404,3.189-3.624,5.681-3.624 c2.8,0,4.901,1.249,6.247,3.716C285.25,53.963,285.87,57.056,285.87,60.949z" class="st1"/><path d="M320.361,38.556c-8.576,0-15.075,4.843-17.379,12.939c-0.757,2.418-1.081,5.435-0.992,9.206 c0,4.641,0.62,8.373,1.889,11.397c2.808,7.192,8.941,11.244,17.276,11.409c0.102,0.001,0.203,0.001,0.305,0.001 c6.938,0,12.886-2.864,16.366-7.904c0.497-0.77,0.368-1.54-0.366-2.172l-4.968-4.213c-0.468-0.401-0.9-0.44-1.186-0.405 c-0.299,0.038-0.739,0.204-1.138,0.779c-1.976,2.884-4.708,4.346-8.113,4.346c-4.647-0.074-7.6-1.953-8.798-5.646 c-0.35-0.795-0.505-1.952-0.642-3.222h24.824c0.961,0,1.607-0.655,1.612-1.632c0.085-2.791,0.073-4.986-0.245-7.278 C337.459,44.479,331.252,38.556,320.361,38.556z M313.272,53.487l0.015-0.044c1.021-3.48,3.467-5.32,7.074-5.32 c3.943,0,6.624,2.056,7.561,5.833c0.194,0.604,0.348,1.571,0.433,2.705h-15.666C312.78,55.29,312.957,54.33,313.272,53.487z" class="st1"/><path d="M369.421,39.873c-1.419-0.786-2.943-1.152-4.798-1.152c-3.748,0-6.805,1.51-9.132,4.54v-2.402 c0-0.936-0.693-1.642-1.613-1.642h-7.377c-0.919,0-1.612,0.706-1.612,1.642v40.262c0,0.937,0.693,1.643,1.612,1.643h7.377 c0.92,0,1.613-0.706,1.613-1.643V57.724c0-5.033,3.639-7.495,7.298-7.707c1.547-0.219,3.071-0.109,4.085,0.294 c0.545,0.21,1.01,0.204,1.38-0.019c0.241-0.146,0.546-0.452,0.617-1.05l1.365-7.454C370.378,40.916,370.08,40.218,369.421,39.873z" class="st1"/></g></g></svg>