<svg xmlns="http://www.w3.org/2000/svg" width="40" height="40" fill="none" viewBox="0 0 40 40"><rect width="40" height="40" fill="#000" fill-opacity="0"/><path fill="#fff" d="M3 37V3H37V37H3ZM11.3154 24.7338C11.3154 25.2729 11.2892 25.4011 11.0065 25.7343L8.61971 28.6341V29.0187H15.3945V28.6341L13.0086 25.7343C12.7259 25.4011 12.6745 25.2467 12.6745 24.7338V16.0366L18.6264 29.0187H19.32L24.4258 16.0366V26.3765C24.4258 26.6582 24.4258 26.7087 24.2461 26.8894L22.4509 28.6341V29.0187H31.3783V28.6341L29.6084 26.8894C29.4297 26.7087 29.4044 26.6582 29.4044 26.3765V13.6245C29.4044 13.3418 29.4297 13.2903 29.6084 13.1116L31.3793 11.3659V10.9813H25.0932L20.6033 22.1935L15.5489 10.9813H8.95291V11.3659L11.0318 13.9305C11.2639 14.2142 11.3145 14.2899 11.3145 14.6766V24.7338H11.3154Z"/></svg>