<svg width="40" height="40" viewBox="0 0 40 40" fill="none" xmlns="http://www.w3.org/2000/svg">
<g clip-path="url(#clip0)">
<path fill-rule="evenodd" clip-rule="evenodd" d="M19.9982 0.0810799C8.95423 0.0810799 0 9.01379 0 20.0336C0 28.8487 5.73007 36.3264 13.6775 38.9659C14.6782 39.1484 15.0428 38.5323 15.0428 38.0031C15.0428 37.5304 15.0256 36.2749 15.0158 34.6104C9.45271 35.8156 8.27895 31.9353 8.27895 31.9353C7.36916 29.6302 6.05789 29.0165 6.05789 29.0165C4.242 27.7795 6.1954 27.804 6.1954 27.804C8.20283 27.9448 9.25873 29.8605 9.25873 29.8605C11.0427 32.9091 13.9403 32.0284 15.0797 31.5177C15.2614 30.2291 15.777 29.3497 16.3492 28.8512C11.9083 28.3478 7.23902 26.6355 7.23902 18.9901C7.23902 16.8123 8.01866 15.0314 9.29801 13.6363C9.09175 13.1317 8.40541 11.1034 9.49323 8.35606C9.49323 8.35606 11.1728 7.81958 14.9937 10.4015C16.5886 9.95814 18.3001 9.73767 20.0006 9.73032C21.6986 9.73767 23.4102 9.95814 25.0075 10.4015C28.8259 7.81958 30.5019 8.35606 30.5019 8.35606C31.5934 11.1034 30.907 13.1317 30.7008 13.6363C31.9826 15.0314 32.7573 16.8123 32.7573 18.9901C32.7573 26.6551 28.0807 28.3417 23.625 28.8353C24.3433 29.4514 24.983 30.6688 24.983 32.5306C24.983 35.1971 24.9584 37.3491 24.9584 38.0031C24.9584 38.5372 25.3181 39.1582 26.3335 38.9634C34.2748 36.319 40 28.8463 40 20.0336C40 9.01379 31.0445 0.0810799 19.9982 0.0810799Z" fill="white"/>
</g>
<defs>
<clipPath id="clip0">
<rect width="40" height="40" fill="white"/>
</clipPath>
</defs>
</svg>
