<svg xmlns="http://www.w3.org/2000/svg" width="40" height="40" fill="none" viewBox="0 0 40 40"><rect width="40" height="40" fill="#000" fill-opacity="0"/><path fill="#fff" d="M35.9646 6.51868C34.6342 7.36808 33.0946 7.9717 31.4709 8.33676C30.8031 7.59889 29.9903 7.00995 29.0844 6.60759C28.1786 6.20523 27.1996 5.9983 26.2101 6.00001C22.2404 6.00001 19.0217 9.27109 19.0217 13.2651C19.0217 13.8434 19.0825 14.4036 19.1468 14.9639C13.228 14.6386 7.93496 11.747 4.38543 7.31929C3.76862 8.43306 3.41719 9.67681 3.35901 10.9518C3.43054 13.5362 4.68227 15.759 6.57773 17.0602C5.45118 17.0422 4.34251 16.7169 3.3769 16.1566V16.3012C3.3769 19.7892 5.84458 22.7349 9.15271 23.4398C8.54473 23.5663 7.90099 23.6566 7.23936 23.6928C6.79232 23.6566 6.34527 23.6205 5.95187 23.5663C6.82808 26.4217 9.47458 28.5181 12.6397 28.6265C10.0529 30.6054 6.90699 31.6948 3.66301 31.7349C3.12655 31.6807 2.55433 31.6627 2 31.6084C5.28807 33.7151 9.10239 34.8304 12.9955 34.8235C26.203 34.8235 33.4344 23.7452 33.4058 14.1958C33.4326 13.8163 33.4236 13.509 33.4058 13.1512C34.8308 12.1422 36.0509 10.8661 37 9.39218C35.7037 10.0067 34.3159 10.4005 32.8926 10.5578C34.3839 9.65443 35.4824 8.21496 35.9682 6.52772"/></svg>