<svg width="40" height="40" viewBox="0 0 40 40" fill="none" xmlns="http://www.w3.org/2000/svg">
<rect width="40" height="40" fill="black" fill-opacity="0"/>
<rect width="40" height="33.5496" fill="black" fill-opacity="0" transform="translate(0 3)"/>
<path d="M15.0449 34.5176C15.9645 34.5176 16.3708 34.097 16.8841 33.598L21.7886 28.829L15.6709 25.1399" fill="white" fill-opacity="0.6"/>
<path d="M30.494 36.0926L15.6702 25.1406L32.727 9.74819C33.4756 9.08382 32.5635 8.75985 31.5698 9.36245L11.5 22.0242L14.5942 32.6181C14.6916 32.89 14.7592 33.1302 14.8092 33.308L14.8311 33.3855C14.8458 33.4371 14.8582 33.4787 14.8685 33.5122C14.9131 33.5153 14.9711 33.5176 15.0449 33.5176V34.5176C14.1113 34.5176 14.0334 34.2414 13.8458 33.5762C13.794 33.3923 13.7338 33.1787 13.6448 32.933L10.5194 22.6429L1.42679 19.8049C-0.536817 19.2037 -0.550917 17.8544 1.86764 16.8843L37.2995 3.22194C38.9178 2.48725 40.4797 3.61062 39.8619 6.08745L33.8279 34.5221C33.4065 36.5428 32.1856 37.026 30.494 36.0926Z" fill="white"/>
</svg>
